<svg width="720" height="520" viewBox="0 0 720 520" xmlns="http://www.w3.org/2000/svg" role="img" aria-label="Mockup do manual aberto">
  <defs>
    <linearGradient id="paper" x1="0" y1="0" x2="0" y2="1">
      <stop offset="0" stop-color="#FFFFFF" />
      <stop offset="1" stop-color="#F5F7FA" />
    </linearGradient>
    <filter id="shadow" x="-30%" y="-30%" width="160%" height="160%">
      <feDropShadow dx="0" dy="18" stdDeviation="16" flood-color="#000000" flood-opacity="0.20" />
    </filter>
  </defs>
  <rect width="720" height="520" fill="none" />
  <g filter="url(#shadow)" transform="translate(70,80)">
    <path d="M0 70 C80 10, 200 10, 280 70 L280 340 C200 300, 80 300, 0 340 Z" fill="url(#paper)" stroke="rgba(10,37,64,0.10)" />
    <path d="M580 70 C500 10, 380 10, 300 70 L300 340 C380 300, 500 300, 580 340 Z" fill="url(#paper)" stroke="rgba(10,37,64,0.10)" />
    <path d="M290 55 L290 360" stroke="rgba(10,37,64,0.18)" stroke-width="2" />
    <g font-family="Inter, Arial, sans-serif" fill="#0A2540">
      <text x="26" y="110" font-size="16" font-weight="800">Indice rapido</text>
      <text x="326" y="110" font-size="16" font-weight="800">Checklist tecnico</text>
    </g>
    <g stroke="rgba(10,37,64,0.20)" stroke-width="2" stroke-linecap="round">
      <path d="M26 140h210" />
      <path d="M26 162h190" />
      <path d="M26 184h205" />
      <path d="M326 140h210" />
      <path d="M326 162h190" />
      <path d="M326 184h205" />
    </g>
    <g>
      <rect x="26" y="214" width="230" height="120" rx="12" fill="rgba(255,107,53,0.10)" stroke="rgba(255,107,53,0.25)" />
      <rect x="326" y="214" width="230" height="120" rx="12" fill="rgba(253,184,19,0.14)" stroke="rgba(253,184,19,0.25)" />
    </g>
  </g>
</svg>

